<?xml version="1.0" encoding="UTF-8" standalone="no"?>
<!-- Generated by IcoMoon.io -->

<svg
   version="1.1"
   width="32"
   height="32"
   viewBox="0 0 32 32"
   id="svg6"
   sodipodi:docname="googleplay.svg"
   inkscape:version="1.2.2 (732a01da63, 2022-12-09)"
   xmlns:inkscape="http://www.inkscape.org/namespaces/inkscape"
   xmlns:sodipodi="http://sodipodi.sourceforge.net/DTD/sodipodi-0.dtd"
   xmlns="http://www.w3.org/2000/svg"
   xmlns:svg="http://www.w3.org/2000/svg">
  <defs
     id="defs10" />
  <sodipodi:namedview
     id="namedview8"
     pagecolor="#ffffff"
     bordercolor="#000000"
     borderopacity="0.25"
     inkscape:showpageshadow="2"
     inkscape:pageopacity="0.0"
     inkscape:pagecheckerboard="0"
     inkscape:deskcolor="#d1d1d1"
     showgrid="false"
     inkscape:zoom="9.7424208"
     inkscape:cx="6.774497"
     inkscape:cy="23.300164"
     inkscape:window-width="1280"
     inkscape:window-height="737"
     inkscape:window-x="-8"
     inkscape:window-y="-8"
     inkscape:window-maximized="1"
     inkscape:current-layer="svg6" />
  <title
     id="title2">googleplay</title>
  <g
     id="g4319">
    <path
       style="opacity:0.98;fill:#fbbc04;stroke:#fbbc04;stroke-width:0.0949153;stroke-linecap:square;stroke-miterlimit:8;paint-order:markers stroke fill;fill-opacity:1;stroke-opacity:1"
       d="M 11.372628,7.7627119 C 7.7112984,3.9779661 4.7344956,0.859128 4.7575105,0.83196052 4.8180418,0.76050766 21.687127,10.437007 21.7353,10.570816 c 0.02894,0.08039 -3.590751,4.073252 -3.692571,4.073252 -0.0072,0 -3.008772,-3.09661 -6.670101,-6.8813561 z"
       id="path808" />
    <path
       style="opacity:0.98;fill:#fbbc04;fill-opacity:1;stroke:#fbbc04;stroke-width:0.0359254;stroke-linecap:square;stroke-miterlimit:8;stroke-opacity:1;paint-order:markers stroke fill"
       d="m 21.298608,18.082716 c -1.100856,-1.143906 -2.031613,-2.121415 -2.068349,-2.172242 -0.06004,-0.08308 0.144319,-0.315946 2.022571,-2.304707 1.14915,-1.216762 2.11152,-2.212295 2.138599,-2.212295 0.02708,0 0.537258,0.28491 1.133729,0.633134 0.596471,0.348224 2.089121,1.205477 3.316998,1.905007 1.285167,0.732169 2.303283,1.34519 2.399301,1.444652 0.271046,0.280766 0.21131,0.655865 -0.149669,0.939811 -0.155619,0.12241 -6.708249,3.855203 -6.758308,3.849959 -0.01832,-0.0019 -0.934016,-0.939413 -2.034872,-2.083319 z"
       id="path1743" />
    <path
       style="opacity:0.98;fill:#34a853;fill-opacity:1;stroke:#fbbc04;stroke-width:0.0359254;stroke-linecap:square;stroke-miterlimit:8;stroke-opacity:1;paint-order:markers stroke fill"
       d="M 17.611591,14.195598 C 17.381285,13.958461 16.739861,13.306031 16.186205,12.745753 15.632549,12.185475 14.420979,10.941839 13.493826,9.9821186 9.555978,5.9059469 9.0212189,5.3514904 7.8254191,4.1049224 4.8191442,0.97101444 4.5734579,0.69873647 4.9140764,0.87847288 5.9528753,1.4266228 13.168484,5.5402447 17.757394,8.2004537 c 2.828789,1.6398603 3.97745,2.3261063 3.97745,2.3762533 0,0.125662 -3.544697,4.050048 -3.658201,4.050048 -0.02547,0 -0.234746,-0.194021 -0.465052,-0.431157 z"
       id="path2471" />
    <path
       style="opacity:0.98;fill:#4285f4;fill-opacity:1;stroke:#fbbc04;stroke-width:0.0359254;stroke-linecap:square;stroke-miterlimit:8;stroke-opacity:1;paint-order:markers stroke fill"
       d="M 1.6838331,31.828068 C 1.5948172,31.696954 1.5904366,31.043774 1.5778204,16.020887 1.5705824,7.4021582 1.5821298,0.28425636 1.6034813,0.20332722 1.6409332,0.06137256 1.9011243,0.32309754 8.9813407,7.6246815 13.017812,11.787356 16.463819,15.350089 16.639134,15.541868 l 0.318755,0.348688 -7.1894919,7.618102 c -3.9542206,4.189957 -7.3699914,7.806669 -7.5906016,8.037139 l -0.4011097,0.419036 z"
       id="path3337" />
    <path
       style="opacity:0.98;fill:#ea4335;fill-opacity:1;stroke:#fbbc04;stroke-width:0.0359254;stroke-linecap:square;stroke-miterlimit:8;stroke-opacity:1;paint-order:markers stroke fill"
       d="M 5.7807179,30.036169 C 5.938049,29.873864 8.7606712,26.872236 12.053212,23.365887 l 5.986437,-6.375182 1.924581,1.983304 c 1.058519,1.090817 1.92458,1.997186 1.92458,2.014153 0,0.01697 -1.356824,0.803444 -3.015164,1.747725 -1.65834,0.944281 -5.334159,3.039539 -8.168486,4.656129 -2.8343267,1.61659 -5.1661862,2.939255 -5.18191,2.939255 -0.015724,0 0.1001368,-0.132796 0.2574679,-0.295102 z"
       id="path4134" />
  </g>
</svg>
