<?xml version="1.0" encoding="UTF-8" standalone="no"?>
<!-- Generated by IcoMoon.io -->

<svg
   version="1.1"
   width="32"
   height="32"
   viewBox="0 0 32 32"
   id="svg316"
   sodipodi:docname="formgoogle.svg"
   inkscape:version="1.2.2 (732a01da63, 2022-12-09)"
   xmlns:inkscape="http://www.inkscape.org/namespaces/inkscape"
   xmlns:sodipodi="http://sodipodi.sourceforge.net/DTD/sodipodi-0.dtd"
   xmlns="http://www.w3.org/2000/svg"
   xmlns:svg="http://www.w3.org/2000/svg">
  <defs
     id="defs320" />
  <sodipodi:namedview
     id="namedview318"
     pagecolor="#ffffff"
     bordercolor="#999999"
     borderopacity="1"
     inkscape:showpageshadow="0"
     inkscape:pageopacity="0"
     inkscape:pagecheckerboard="0"
     inkscape:deskcolor="#d1d1d1"
     showgrid="false"
     inkscape:zoom="7.375"
     inkscape:cx="10.033898"
     inkscape:cy="16"
     inkscape:window-width="1280"
     inkscape:window-height="737"
     inkscape:window-x="-8"
     inkscape:window-y="-8"
     inkscape:window-maximized="1"
     inkscape:current-layer="svg316" />
  <title
     id="title312">file-empty</title>
  <path
     id="rect1299"
     style="opacity:0.99;fill:#703db4;stroke:#703db4;stroke-width:0.8;fill-opacity:1;stroke-opacity:1"
     d="m 4.067796,1.2203389 c 0,0 16.778906,-1.24362198 21.694915,4.0677966 5.731488,6.1924905 1.898305,24.6779635 1.898305,24.6779635 H 4.067796 Z"
     sodipodi:nodetypes="csccc" />
  <path
     d="M28.681 7.159c-0.694-0.947-1.662-2.053-2.724-3.116s-2.169-2.030-3.116-2.724c-1.612-1.182-2.393-1.319-2.841-1.319h-15.5c-1.378 0-2.5 1.121-2.5 2.5v27c0 1.378 1.122 2.5 2.5 2.5h23c1.378 0 2.5-1.122 2.5-2.5v-19.5c0-0.448-0.137-1.23-1.319-2.841zM24.543 5.457c0.959 0.959 1.712 1.825 2.268 2.543h-4.811v-4.811c0.718 0.556 1.584 1.309 2.543 2.268zM28 29.5c0 0.271-0.229 0.5-0.5 0.5h-23c-0.271 0-0.5-0.229-0.5-0.5v-27c0-0.271 0.229-0.5 0.5-0.5 0 0 15.499-0 15.5 0v7c0 0.552 0.448 1 1 1h7v19.5z"
     id="path314"
     style="stroke-width:0;stroke-dasharray:none;fill:#703db4;fill-opacity:1;stroke:#aa566b;stroke-opacity:0" />
  <path
     d="m 10.970814,12.81261 h 14.016 v 1.969 h -14.016 z m 0,7.968 v -1.969 h 14.016 v 1.969 z m 0,6 v -1.969 h 14.016 v 1.969 z m -2.9999995,-2.484 q 0.609,0 1.055,0.445 0.446,0.445 0.445,1.055 -10e-4,0.61 -0.445,1.055 -0.444,0.445 -1.055,0.445 -0.611,0 -1.055,-0.445 -0.444,-0.445 -0.445,-1.055 -0.001,-0.61 0.445,-1.055 0.446,-0.445 1.055,-0.445 z m 0,-12 q 0.609,0 1.055,0.422 0.446,0.422 0.445,1.078 -10e-4,0.656 -0.445,1.078 -0.444,0.422 -1.055,0.422 -0.611,0 -1.055,-0.422 -0.444,-0.422 -0.445,-1.078 -0.001,-0.656 0.445,-1.078 0.446,-0.422 1.055,-0.422 z m 0,6 q 0.609,0 1.055,0.422 0.446,0.422 0.445,1.078 -10e-4,0.656 -0.445,1.078 -0.444,0.422 -1.055,0.422 -0.611,0 -1.055,-0.422 -0.444,-0.422 -0.445,-1.078 -0.001,-0.656 0.445,-1.078 0.446,-0.422 1.055,-0.422 z"
     id="path1627"
     style="fill:#fefefe;fill-opacity:1;stroke:#ffffff;stroke-width:1.4;stroke-dasharray:none;stroke-opacity:1" />
  <path
     style="opacity:0.99;fill:#541e91;fill-opacity:1;stroke:#541e91;stroke-width:1;stroke-dasharray:none;stroke-opacity:1"
     d="m 22.101695,5.6822891 v -2.317711 l 0.644068,0.5452991 c 0.600756,0.5086291 2.726251,2.6503317 3.621827,3.6494448 L 26.762601,8 h -2.330453 -2.330453 z"
     id="path2365" />
</svg>
