<?xml version="1.0" encoding="UTF-8" standalone="no"?>
<!-- Created with Inkscape (http://www.inkscape.org/) -->

<svg
   width="667mm"
   height="545mm"
   viewBox="0 0 667 545"
   version="1.1"
   id="svg5"
   inkscape:export-filename="zerotime.svg"
   inkscape:export-xdpi="96"
   inkscape:export-ydpi="96"
   sodipodi:docname="zeroivel.svg"
   inkscape:version="1.2.2 (732a01da63, 2022-12-09)"
   xmlns:inkscape="http://www.inkscape.org/namespaces/inkscape"
   xmlns:sodipodi="http://sodipodi.sourceforge.net/DTD/sodipodi-0.dtd"
   xmlns:xlink="http://www.w3.org/1999/xlink"
   xmlns="http://www.w3.org/2000/svg"
   xmlns:svg="http://www.w3.org/2000/svg">
  <sodipodi:namedview
     id="namedview7"
     pagecolor="#ffffff"
     bordercolor="#000000"
     borderopacity="0.25"
     inkscape:showpageshadow="2"
     inkscape:pageopacity="0.0"
     inkscape:pagecheckerboard="0"
     inkscape:deskcolor="#d1d1d1"
     inkscape:document-units="mm"
     showgrid="false"
     showguides="true"
     inkscape:zoom="1.7167807"
     inkscape:cx="2296.1581"
     inkscape:cy="1113.7124"
     inkscape:window-width="1280"
     inkscape:window-height="737"
     inkscape:window-x="-8"
     inkscape:window-y="-8"
     inkscape:window-maximized="1"
     inkscape:current-layer="svg5">
    <sodipodi:guide
       position="567.74083,400.39517"
       orientation="1,0"
       id="guide1114"
       inkscape:locked="false" />
    <sodipodi:guide
       position="469.85449,338.54879"
       orientation="1,0"
       id="guide1116"
       inkscape:locked="false" />
    <sodipodi:guide
       position="665.18226,327.42534"
       orientation="1,0"
       id="guide1118"
       inkscape:locked="false" />
    <sodipodi:guide
       position="585.9833,428.42625"
       orientation="0,-1"
       id="guide1120"
       inkscape:locked="false" />
    <sodipodi:guide
       position="571.74528,237.54787"
       orientation="0,-1"
       id="guide1122"
       inkscape:locked="false" />
    <sodipodi:guide
       position="601.11119,332.31966"
       orientation="0,-1"
       id="guide1124"
       inkscape:locked="false" />
    <sodipodi:guide
       position="567.81858,332.24193"
       orientation="0.70710678,0.70710678"
       id="guide1282"
       inkscape:locked="false"
       inkscape:label=""
       inkscape:color="rgb(0,134,229)" />
    <sodipodi:guide
       position="567.71316,332.29361"
       orientation="0.70710678,-0.70710678"
       id="guide2838"
       inkscape:locked="false"
       inkscape:label=""
       inkscape:color="rgb(0,134,229)" />
  </sodipodi:namedview>
  <defs
     id="defs2">
    <linearGradient
       inkscape:collect="always"
       id="linearGradient3956">
      <stop
         style="stop-color:#000000;stop-opacity:1;"
         offset="0"
         id="stop3952" />
      <stop
         style="stop-color:#009903;stop-opacity:1;"
         offset="1"
         id="stop3954" />
    </linearGradient>
    <linearGradient
       inkscape:collect="always"
       id="linearGradient6688">
      <stop
         style="stop-color:#1aa200;stop-opacity:1;"
         offset="0"
         id="stop6684" />
      <stop
         style="stop-color:#000000;stop-opacity:1;"
         offset="0.55000001"
         id="stop6686" />
    </linearGradient>
    <linearGradient
       id="linearGradient6606"
       inkscape:swatch="solid">
      <stop
         style="stop-color:#5c3500;stop-opacity:1;"
         offset="0"
         id="stop6604" />
    </linearGradient>
    <linearGradient
       inkscape:collect="always"
       xlink:href="#linearGradient6688"
       id="linearGradient6690"
       x1="236.71754"
       y1="57.177505"
       x2="228.41167"
       y2="564.22333"
       gradientUnits="userSpaceOnUse" />
    <linearGradient
       inkscape:collect="always"
       xlink:href="#linearGradient3956"
       id="linearGradient3958"
       x1="383.44055"
       y1="532.62482"
       x2="385.28995"
       y2="367.41248"
       gradientUnits="userSpaceOnUse"
       gradientTransform="translate(181.508,-172.5003)" />
  </defs>
  <path
     id="path535"
     style="fill:url(#linearGradient3958);fill-opacity:1;stroke:none;stroke-width:0.200499;stroke-opacity:1"
     inkscape:label="path535"
     d="m 566.21778,213.60783 c -5.44067,0.0848 -11.69841,1.63336 -18.18029,4.70979 -0.4461,0.21182 -0.87686,0.38499 -0.95756,0.38499 -0.19451,0 -3.66888,1.45948 -5.9123,2.48356 -0.60339,0.27549 -1.63559,0.7393 -2.29392,1.03095 -0.65835,0.29166 -1.33146,0.61093 -1.49603,0.70952 -0.16458,0.0986 -0.88308,0.4633 -1.59628,0.81028 -0.7132,0.34707 -1.43123,0.71191 -1.59577,0.81081 -0.16458,0.0989 -1.24206,0.74099 -2.39417,1.42678 -1.15201,0.68589 -2.74109,1.69602 -3.53105,2.24483 -0.78999,0.54873 -1.52998,0.94003 -1.64383,0.86868 -0.11881,-0.0745 -0.16186,-0.009 -0.0997,0.15348 0.0618,0.16269 -0.10616,0.42469 -0.39532,0.61598 -1.92645,1.2748 -2.7646,3.95626 -1.68569,5.39295 0.45268,0.6028 0.30716,1.25486 1.90015,2.38487 1.61812,1.14807 0.4664,0.18554 2.92385,2.6603 5.6258,5.90513 6.76573,11.73127 3.78065,2.76934 -0.36878,-1.52413 -2.03951,-5.84276 -2.75384,-7.4414 0.67068,0.29694 2.13206,-1.16292 2.73058,-0.53227 3.02705,3.18937 4.29847,6.66543 4.17081,6.38204 -0.16377,-0.3641 5.456,5.63184 5.13508,5.28443 -3.03342,-3.28353 -5.58081,-13.86132 -3.49901,-14.52935 4.15347,-1.33278 7.16412,-0.28485 14.7252,5.12579 0.61017,0.43662 1.61881,1.15674 2.24173,1.5999 2.18603,1.55562 0.17001,8.81367 -3.5078,12.62921 -0.14137,0.14662 -0.79205,0.93804 -1.44642,1.75854 -2.28561,2.86602 -1.59569,2.57114 -5.1046,2.18385 -1.68713,-0.1861 -3.20269,-0.35084 -3.36724,-0.36535 -0.16458,-0.0148 -1.42102,-0.20744 -2.79259,-0.42788 -3.22396,-0.51821 -6.05419,-0.49706 -7.90133,0.0599 -0.75651,0.22776 -1.52594,0.42735 -1.70997,0.44184 -0.18403,0.015 -0.29094,0.0983 -0.23771,0.18551 0.0534,0.087 -0.004,0.15813 -0.12816,0.15813 -2.10946,0 -5.61226,5.01346 -7.39128,10.57869 -0.66694,2.08628 -2.37727,3.95755 -4.67878,5.11855 -2.26005,1.14005 -1.62323,2.2978 1.39888,2.54248 2.50122,0.20269 2.29391,-0.0601 2.29391,2.90886 0,6.76471 6.17016,1.63587 9.74308,-8.09873 1.47279,-4.01259 3.38608,-6.6094 5.16919,-7.01559 0.70893,-0.16152 1.00977,-0.099 4.25814,0.89039 0.94273,0.28716 2.37917,0.57555 3.19205,0.64027 2.36145,0.18839 2.31233,0.16319 2.46704,1.24902 0.0752,0.52736 0.39276,1.54871 0.7059,2.26911 0.31309,0.72035 0.62663,1.57596 0.69711,1.90169 0.84756,3.91715 5.72861,3.31605 13.97848,-1.72237 2.90826,-1.77604 6.21129,-3.32149 8.55089,-4.00079 6.36717,-1.84879 11.14831,-6.21085 12.18841,-11.11974 0.0787,-0.37143 0.21505,-0.76594 0.30282,-0.87695 0.0876,-0.11086 0.16248,-0.27019 0.1664,-0.35398 0.10638,-2.2552 0.26395,-2.56383 1.02319,-2.00711 1.40008,1.02662 3.04111,2.30856 3.37654,2.63756 0.18409,0.18054 0.91426,0.83779 1.62212,1.46038 8.16146,7.17808 12.90862,15.2015 12.15637,20.54603 -1.04886,7.4519 -7.31633,10.97204 -15.75718,8.84959 -0.38393,-0.0966 -1.41659,-0.33021 -2.29443,-0.51935 -0.87778,-0.18904 -1.69402,-0.42081 -1.81385,-0.51521 -0.11971,-0.0944 -0.25857,-0.12947 -0.3085,-0.0796 -0.0498,0.0505 -0.58035,-0.0435 -1.17874,-0.20826 -1.08886,-0.29974 -3.55328,-0.87495 -7.67137,-1.78956 -13.90621,-3.08838 -26.58627,0.51599 -34.1545,9.70846 -0.38685,0.46998 -0.79679,0.79594 -0.91106,0.7245 -0.123,-0.077 -0.14831,-0.032 -0.061,0.11007 0.0841,0.13731 -0.23668,0.8613 -0.74982,1.69344 -3.06245,4.96605 -4.88789,13.52336 -4.03903,18.93269 0.0567,0.36111 0.14692,1.03668 0.20102,1.5012 0.44754,3.84407 3.30301,11.03364 5.16557,13.00644 0.13194,0.13974 0.38377,0.48065 0.55914,0.75758 0.53267,0.84138 2.7023,3.17667 4.32635,4.65708 2.54957,2.32416 6.26156,4.63882 9.99784,6.2792 0.17685,0.0366 0.35376,0.0716 0.5302,0.11162 2.809,0.43924 5.62724,0.81883 8.40724,1.48673 1.60954,0.36591 3.22022,0.69919 4.83847,1.00615 1.00062,0.18976 2.82019,0.51666 3.77341,0.74879 0.50244,0.1224 0.99642,0.29056 1.49448,0.43615 0.64887,0.22075 1.29256,0.45649 1.93322,0.70383 1.09295,-0.0127 2.60264,-0.0231 4.52479,-0.0258 3.57709,-0.006 6.71525,-0.10637 7.52977,-0.2403 3.91681,-0.64335 5.10168,-0.88428 8.20312,-1.66501 1.85252,-0.46632 3.45801,-0.91668 3.56774,-1.00046 0.10973,-0.0839 0.69359,-0.3126 1.29708,-0.50849 3.62445,-1.17645 11.695,-5.41979 14.4632,-7.60419 0.10973,-0.0866 0.91793,-0.70852 1.79575,-1.38234 2.07969,-1.59641 2.76878,-2.14723 3.75636,-3.0024 1.14307,-0.98981 5.70244,-5.58765 7.72046,-7.78558 0.92969,-1.01255 2.18392,-2.22623 2.78743,-2.69699 0.60346,-0.47075 1.18705,-0.95731 1.29708,-1.08107 0.0924,-0.10388 0.36557,-0.29072 0.64388,-0.45579 0.48605,-1.31154 0.98877,-2.61479 1.52394,-3.90002 0.0976,-0.25102 0.19429,-0.503 0.29146,-0.75447 -0.43137,0.19506 -0.83956,0.35347 -0.92346,0.35347 -0.0899,0 -0.69033,0.32061 -1.3348,0.71261 -0.64448,0.39188 -1.29525,0.66513 -1.44539,0.60668 -0.14955,-0.0585 -0.2216,-0.022 -0.15865,0.0806 0.0628,0.10263 -0.30245,0.4763 -0.81132,0.82992 -0.98553,0.68487 -4.10343,3.74621 -6.87452,6.74946 -4.73176,5.12822 -13.86751,12.25244 -15.22181,11.87008 -0.29623,-0.0842 -0.34603,-0.0639 -0.16226,0.0651 0.30644,0.21498 -0.76242,0.87045 -3.65714,2.24327 -8.63226,4.09382 -18.29376,5.98179 -27.83913,5.4405 -4.33355,-0.24571 -11.67516,-1.33453 -12.27884,-1.82108 -0.11976,-0.0961 -0.26191,-0.13172 -0.31522,-0.0775 -0.26589,0.26856 -7.12553,-1.97246 -8.94312,-2.92179 -0.38405,-0.20059 -1.28212,-0.65933 -1.99523,-1.01906 -4.15788,-2.09684 -11.57087,-8.85347 -11.57087,-10.54612 0,-0.0517 -0.30902,-0.62192 -0.6873,-1.26711 -0.66455,-1.13333 -1.82672,-3.85903 -1.973,-4.62711 -0.0392,-0.20608 -0.17816,-0.63967 -0.30903,-0.96325 -5.37441,-13.28937 5.42566,-30.67548 20.42563,-32.88068 0.4389,-0.0648 1.29202,-0.19225 1.89549,-0.2837 4.11578,-0.62371 9.84802,0.064 18.45365,2.2133 9.02538,2.2541 10.87572,2.55135 14.66319,2.36161 10.21099,-0.51166 15.41949,-10.73015 10.88667,-21.35786 -0.17958,-0.42052 -0.26403,-0.86495 -0.18861,-0.98806 0.077,-0.12639 0.0473,-0.16767 -0.0682,-0.0956 -0.11429,0.0714 -0.60612,-0.56743 -1.10794,-1.4397 -2.61252,-4.54125 -7.71262,-10.06202 -13.63069,-14.75414 -0.97697,-0.77458 -1.95549,-1.5517 -2.17506,-1.72703 -3.84,-3.0672 -5.08841,-2.85562 -5.31854,0.89969 -0.4188,6.83205 -3.61015,11.03642 -9.97045,13.13563 -1.00502,0.33174 -1.87319,0.55672 -1.92908,0.50023 -0.056,-0.0567 -0.20003,-0.022 -0.31988,0.077 -0.11983,0.0989 -0.93552,0.45992 -1.81333,0.80201 -0.87779,0.34205 -2.49372,1.13275 -3.59099,1.75752 -1.09724,0.62481 -2.44398,1.37845 -2.99258,1.67535 -0.54864,0.29681 -1.3809,0.78651 -1.8495,1.0883 -2.78278,1.79201 -6.31536,3.02833 -6.72776,2.35438 -0.47315,-0.77321 4.65202,-5.44256 5.9738,-5.44256 0.18896,0 2.46177,-1.64151 3.43028,-2.47737 3.70918,-3.20136 7.36325,-8.68521 9.35912,-14.04617 0.87187,-2.34211 0.5848,-3.25075 -1.09813,-3.47886 -0.82558,-0.11186 -3.2703,-1.06472 -4.00079,-1.55907 -1.71357,-1.15958 -4.12002,-2.73247 -4.28914,-2.80345 -0.10974,-0.0461 -1.14232,-0.77539 -2.29443,-1.62006 -1.72049,-1.26131 -5.50958,-3.86026 -7.28535,-4.99762 -5.7892,-3.70787 -9.75985,-3.68647 -19.04845,0.10283 -3.40685,1.39127 -3.70416,1.50537 -3.58738,1.39423 0.61049,-0.58143 3.87614,-2.87223 5.09892,-3.57704 1.86718,-1.07625 3.61221,-2.03192 4.07417,-2.23087 0.27433,-0.11824 0.63331,-0.29242 0.79788,-0.38809 0.64148,-0.37299 5.18556,-2.55053 6.48436,-3.10731 10.30476,-4.41755 22.99714,-7.79891 24.87445,-6.62698 0.14103,0.0872 0.52705,0.13629 0.85783,0.10852 1.26619,-0.1078 4.55,0.90014 6.04718,1.85622 1.0101,0.64502 2.87527,2.51591 2.73575,2.74401 -0.0534,0.0872 0.0256,0.26194 0.17621,0.38809 0.15049,0.12622 0.47323,0.85675 0.71727,1.62316 0.58672,1.8431 0.85325,2.06048 2.64274,2.15698 1.29794,0.0699 3.54336,0.4905 4.34185,0.81287 0.1646,0.0663 0.39198,0.14138 0.50539,0.16588 1.67902,0.3754 7.80652,3.64288 8.8713,4.73046 0.0548,0.056 0.45601,0.37019 0.8909,0.69815 0.43502,0.32789 0.9415,0.73574 1.12551,0.90588 0.1841,0.17019 0.68194,0.56022 1.10691,0.86662 0.7327,0.52836 5.06401,4.88435 6.35879,6.39496 2.1036,2.45442 5.07871,6.32965 5.97896,7.78815 0.21945,0.3556 1.15304,1.8543 2.07429,3.33055 2.46197,3.94522 4.25253,7.4067 5.81773,11.24789 0.2484,0.60955 0.60939,1.47081 0.80254,1.9141 0.19307,0.4433 0.71269,1.93952 1.15497,3.32486 2.7302,8.55169 2.90284,14.10002 0.56017,18.03456 -0.132,0.22165 -0.50464,0.8562 -0.82837,1.41024 -0.71736,1.22781 -1.87589,2.89123 -2.34921,3.37293 -0.19197,0.1954 -0.35113,0.42319 -0.35192,0.50642 -0.005,0.23687 -2.26329,2.73619 -3.51245,3.88659 -5.37198,4.94674 -11.91037,6.80378 -20.23287,5.74694 -3.0475,-0.38708 -5.99313,-1.04691 -12.06231,-2.70268 -5.46593,-1.49121 -7.70018,-2.0377 -9.27696,-2.26705 -0.93267,-0.13575 -1.78523,-0.30361 -1.89497,-0.37362 -2.05949,-1.31294 -10.30539,0.7751 -12.86278,3.25717 -0.45898,0.44556 -0.90689,0.72355 -1.03612,0.64285 -0.14289,-0.0893 -0.17282,-0.0526 -0.0801,0.0992 0.0831,0.13577 -0.0607,0.52383 -0.32867,0.88729 -2.83016,3.83794 -3.05086,10.54672 -0.43408,13.18989 0.15294,0.1543 0.27802,0.37069 0.27802,0.48059 0,1.7186 6.88995,5.49462 11.17193,6.12314 7.40885,1.08759 20.12548,-0.47947 26.83247,-3.30678 0.21934,-0.0925 0.73928,-0.3172 1.15445,-0.49867 0.41521,-0.18177 0.83707,-0.3297 0.93741,-0.3297 0.31222,0 4.3202,-1.96278 6.04356,-2.95951 1.38814,-0.80286 2.55222,-1.59913 5.23844,-3.58324 2.35933,-1.74269 5.98485,-5.52143 10.26294,-10.69651 5.15279,-6.23312 8.58782,-9.47836 12.77183,-11.67525 -0.048,-0.4232 -0.087,-0.84896 -0.108,-1.28003 0.0549,-0.80268 -0.0374,-1.64622 0.0579,-2.43758 -0.11504,0.0487 -0.41652,0.19017 -0.43098,0.19017 -0.18587,0 -3.1154,1.73867 -4.46536,2.65049 -1.13319,0.76536 -1.39963,0.88222 -1.20406,0.52658 0.13817,-0.2511 0.25857,-0.50204 0.26562,-0.55759 0.008,-0.0555 0.1124,-0.28216 0.23254,-0.50384 2.17389,-4.01113 0.65591,-15.4432 -3.24683,-24.45639 -1.71235,-3.95448 -5.5079,-11.19758 -6.50761,-12.41836 -0.0908,-0.11081 -0.71915,-1.06333 -1.3963,-2.11615 -4.34643,-6.75804 -12.55303,-15.59171 -17.0496,-18.35237 -0.41817,-0.25674 -0.80518,-0.52358 -0.8599,-0.59325 -0.0549,-0.0697 -0.4361,-0.35454 -0.84698,-0.63303 -0.41083,-0.27849 -0.68006,-0.58115 -0.59841,-0.67231 0.0817,-0.0912 0.0514,-0.10966 -0.0677,-0.0408 -0.11886,0.0683 -1.15143,-0.35156 -2.29443,-0.93276 -3.10663,-1.57969 -6.55561,-2.69705 -9.23975,-2.99258 -0.31809,-0.0351 -0.64208,-0.19972 -0.71985,-0.36587 -2.56002,-5.47191 -8.2584,-8.36709 -15.56701,-8.51783 v -5.1e-4 c -0.35527,-0.007 -0.71472,-0.008 -1.07745,-0.003 z m 1.66088,7.15977 c -0.22205,-0.006 -0.44957,-0.005 -0.68213,0.004 -2.89401,0.11144 -6.58103,1.43792 -10.56369,4.02249 -2.20977,1.434 -2.39604,1.65489 -2.09083,2.48822 0.25384,0.69312 4.67345,1.9287 9.96786,2.78743 6.03277,0.97841 8.89867,-0.24998 8.85941,-3.7977 -0.0393,-3.54269 -2.15985,-5.4034 -5.49062,-5.50406 z m -0.14676,2.19314 v 5.2e-4 c 0.20556,-0.006 0.40287,-0.005 0.58963,0.004 0.49802,0.0274 0.92323,0.11708 1.24488,0.27286 1.52661,0.7394 2.27049,3.50779 1.15756,4.30826 -0.62264,0.44795 -3.00279,0.71689 -4.51859,0.51056 -3.23398,-0.43995 -7.88192,-1.71383 -7.53546,-1.711 23.74032,0.2148 2.82089,-1.51668 4.04523,-2.08153 1.71876,-0.79296 3.57782,-1.25554 5.01675,-1.3038 z m -8.42688,18.60249 c 0.18746,-0.0277 0.51629,0.18847 1.16169,0.62321 0.63256,0.42612 2.14399,1.2928 3.35845,1.9265 2.46136,1.28428 2.45045,1.5077 -0.29094,6.12728 -2.47535,4.17103 -3.27006,4.81983 -6.50606,5.31285 -1.71901,0.26179 -5.2865,0.52326 -5.2865,0.38757 0,-0.0549 0.29196,-0.41538 0.64854,-0.8015 0.35663,-0.3861 0.91725,-1.04758 1.24644,-1.46968 0.32917,-0.42209 0.68866,-0.86803 0.7984,-0.99115 1.958,-2.19668 4.0816,-6.98343 4.55786,-10.27328 0.0784,-0.54212 0.12467,-0.814 0.31212,-0.8418 z m -24.63312,15.15204 c 1.64679,-0.0517 3.605,0.12421 5.99705,0.46767 6.31486,0.90663 13.31407,1.21548 15.81092,0.69712 0.247,-0.051 0.44778,-0.024 0.447,0.0615 -0.003,0.1911 -2.24452,1.66605 -2.53317,1.66605 -0.11495,0 -0.30872,0.12163 -0.43047,0.26975 -0.23524,0.28625 -1.23648,0.5436 -4.07779,1.048 -2.91963,0.51828 -7.02298,0.0972 -10.24795,-1.05161 -4.8844,-1.74 -7.77582,0.42569 -10.94403,8.19743 -1.75909,4.31487 -2.84089,6.33353 -4.13774,7.72252 -1.05326,1.12803 -1.16768,1.01221 -1.12809,-1.14049 0.0429,-2.32458 -0.1424,-2.75384 -1.18598,-2.75384 -1.08877,0 -1.09025,-0.11474 -0.0212,-1.19476 1.08327,-1.094 1.78416,-2.37352 2.27117,-4.14497 0.18282,-0.66497 0.41307,-1.39063 0.51108,-1.6123 2.59653,-5.87372 4.72894,-8.07704 9.66918,-8.23206 z m 34.60254,41.93388 c 1.09057,-0.0125 2.20404,0.0942 3.31504,0.33796 3.46676,0.76076 12.14386,3.03773 12.55996,3.29592 0.10512,0.0654 0.37478,0.1388 0.59893,0.1633 0.22411,0.0246 1.15162,0.23241 2.06137,0.46147 2.0402,0.51383 6.15421,1.19247 8.42068,1.38958 2.08256,0.1812 7.93314,-0.0994 8.77776,-0.42116 0.16457,-0.0627 1.05134,-0.30492 1.97042,-0.53795 0.91907,-0.23302 1.91352,-0.54961 2.20968,-0.70435 2.89156,-1.51029 3.00201,-1.42627 0.90744,0.69143 -2.9189,2.95124 -8.00351,6.85432 -8.51421,6.53552 -0.13114,-0.0816 -0.17112,-0.0514 -0.0951,0.0734 0.13997,0.22877 -1.9175,1.36349 -4.45813,2.45824 -0.82292,0.35458 -1.7659,0.76385 -2.09496,0.91003 -1.00475,0.44628 -5.61776,1.91125 -6.4239,2.04018 -0.41701,0.0664 -0.8195,0.15972 -0.89452,0.20619 -0.0749,0.0463 -0.56858,0.17338 -1.09709,0.28215 -3.57205,0.73541 -5.50265,1.04984 -8.04292,1.31052 v -5.2e-4 c -3.05852,0.31378 -5.17574,0.34025 -7.50186,0.0925 -2.21081,-0.23552 -4.25632,-0.61881 -4.37958,-0.8201 -0.0617,-0.10066 -0.24878,-0.18345 -0.41548,-0.18345 -1.25388,0 -4.72284,-2.04418 -6.05028,-3.56516 -0.79125,-0.90638 -1.74483,-2.47995 -1.50275,-2.47995 0.0596,0 -0.025,-0.2059 -0.1881,-0.45734 -3.30747,-5.0985 3.20382,-10.99159 10.83758,-11.07839 z m 8.87439,44.27998 c 0.0186,0.009 0.0372,0.017 0.0558,0.0258 0.0335,0.004 0.0868,0.0104 0.12092,0.0145 -0.0352,-0.008 -0.0702,-0.016 -0.10542,-0.0238 -0.0238,-0.006 -0.0475,-0.0111 -0.0713,-0.0165 z m 3.09129,0.28474 v 5.2e-4 c -0.004,2.5e-4 -0.01,0.001 -0.0119,0.003 -0.0176,0.0145 -0.041,0.0283 -0.047,0.0501 0.0227,-0.0163 0.0444,-0.0326 0.0641,-0.0506 0.002,-0.002 -10e-4,-0.003 -0.005,-0.003 z m 0.88418,0.11472 c 0.002,0.0188 0.004,0.0375 0.006,0.0563 0.0212,-0.0132 0.0407,-0.0274 0.0625,-0.0403 -0.0257,-0.006 -0.0424,-0.01 -0.0682,-0.016 z m 50.86098,39.48855 c -0.005,-6.6e-4 -0.0134,0.004 -0.0264,0.0191 -0.22313,0.2527 -0.35237,0.60147 -0.52865,0.90227 -0.0169,0.12214 -0.0237,0.14461 -0.0393,0.25114 0.15316,-0.20526 0.28705,-0.43319 0.40721,-0.66766 0.0666,-0.12987 0.21999,-0.49484 0.18707,-0.50487 z m -22.11544,8.33385 c 0.25697,0.34102 0.47703,0.72244 0.64647,1.15446 0.50296,-0.10901 1.00637,-0.21445 1.50947,-0.32247 -0.73366,-0.34567 -1.46137,-0.62829 -2.15594,-0.83199 z m 32.74632,13.53716 c -0.25347,0.99392 -0.525,1.92973 -0.601,2.21124 -0.0151,0.0482 -0.0304,0.0965 -0.0455,0.14469 0.096,0.26112 0.19915,0.56367 0.31161,0.91881 0.0219,0.016 0.047,0.0349 0.0677,0.0501 0.10432,-1.10632 0.20075,-2.21454 0.26717,-3.32486 z m -4.56045,17.71107 c -0.5139,0.13077 -1.02803,0.26158 -1.54202,0.39222 0.50056,0.0438 0.75535,0.0686 1.16272,0.1049 0.12872,-0.16448 0.25375,-0.33086 0.3793,-0.49712 z" />
  <g
     inkscape:groupmode="layer"
     id="layer2"
     inkscape:label="Capa 2" />
  <g
     id="g7615"
     transform="matrix(1.0195138,0,0,1.2900532,-8.6467984,-39.4408)"
     style="display:inline;stroke:#000000;stroke-opacity:1">
    <path
       id="text236"
       style="font-size:257.194px;fill:url(#linearGradient6690);fill-opacity:1;stroke:#000000;stroke-width:0;stroke-linecap:square;stroke-linejoin:round;stroke-dasharray:none;stroke-opacity:1;paint-order:stroke markers fill"
       transform="scale(1.0193583,0.98100935)"
       d="m 559.23508,123.73254 c -29.30267,0 -52.2426,8.45611 -68.81954,25.36793 -16.49322,16.82811 -24.74005,39.72606 -24.74005,68.69384 0,27.79568 7.66067,49.85642 22.98178,66.1822 15.40484,16.24205 37.13086,24.36304 65.17771,24.36304 29.55383,0 52.53535,-8.79083 68.94484,-26.37243 16.49322,-17.66533 24.74005,-40.98208 24.74005,-69.94987 0,-27.29334 -7.70275,-48.80997 -23.10758,-64.54969 -15.32111,-15.82344 -37.04664,-23.73502 -65.17721,-23.73502 z m -179.7097,3.51613 c -1.75816,0 -4.14388,0.042 -7.15787,0.12577 -3.01399,0.0837 -6.78145,0.20944 -11.30244,0.37689 -4.43726,0.16744 -8.20472,0.3348 -11.30243,0.50224 -3.09771,0.0837 -5.65127,0.12536 -7.66059,0.12536 -10.21408,0 -20.72139,-0.16736 -31.52151,-0.50225 l 0.25111,5.40017 15.57229,4.89793 c 1.92561,0.66977 2.9301,2.09273 3.01382,4.2695 0.0837,2.76282 0.1258,5.86059 0.1258,9.29319 0.0837,3.4326 0.12581,7.28389 0.12581,11.55371 V 265.139 c 0,5.02332 -0.0421,9.62813 -0.12581,13.81423 0,4.10237 -0.0421,7.82794 -0.1258,11.17682 -0.16744,2.00933 -1.29768,3.30697 -3.39073,3.89302 l -15.44649,4.6468 0.50222,5.39976 c 10.63268,-0.25116 21.01424,-0.37648 31.14459,-0.37648 9.96291,0 19.92614,0.12532 29.88905,0.37648 l -0.37692,-5.39976 -13.93983,-4.14455 c -2.09305,-0.66978 -3.1812,-2.30214 -3.26493,-4.89752 -0.0837,-3.26515 -0.16738,-6.90704 -0.25111,-10.92569 V 265.139 221.56157 l 8.66504,0.25112 c 2.17677,0.0837 3.93475,0.25149 5.2743,0.50266 1.42327,0.25116 2.63768,0.7116 3.64234,1.38138 1.08838,0.66977 2.05079,1.59066 2.88801,2.76276 0.92094,1.17211 2.0096,2.76283 3.26543,4.77216 4.26981,6.69775 8.33035,13.56273 12.18156,20.59537 3.85121,6.94892 7.53501,13.52122 11.05133,19.71664 3.60004,6.19543 7.03234,11.76317 10.29749,16.70276 3.34888,4.85587 6.7396,8.58144 10.17219,11.17682 1.59072,1.25583 3.18187,2.30244 4.77259,3.13965 1.67443,0.7535 3.51608,1.3813 5.52541,1.88363 2.00933,0.50233 4.31188,0.83705 6.90726,1.0045 2.59538,0.16744 5.60935,0.25112 9.04195,0.25112 4.10237,0 9.16741,-0.37676 15.19538,-1.13026 l -0.37691,-5.52553 c -2.09305,-0.50233 -4.01836,-1.0044 -5.77652,-1.50674 -1.67444,-0.50233 -3.30717,-1.08849 -4.89789,-1.75827 -1.50699,-0.66977 -2.9719,-1.50697 -4.39517,-2.51164 -1.42327,-1.08838 -2.84659,-2.34439 -4.26986,-3.76766 -2.76283,-2.76283 -5.73521,-6.53044 -8.91664,-11.30259 -3.18144,-4.77215 -6.6979,-10.2558 -10.54911,-16.45122 -3.76748,-6.27915 -7.86961,-13.14412 -12.30687,-20.59538 -4.43726,-7.53497 -9.29338,-15.32123 -14.56786,-23.35854 13.39551,-4.18609 23.35874,-10.1306 29.88905,-17.83301 6.53031,-7.78614 9.79527,-17.91625 9.79527,-30.39081 0,-13.81412 -4.77195,-24.32139 -14.31625,-31.52148 -9.5443,-7.20008 -23.86115,-10.80034 -42.94975,-10.80034 z m -367.707014,0.62801 -0.879133,1.0049 6.53035,41.6934 5.023691,-0.87914 9.293057,-30.13968 h 74.093849 l -96.8245205,159.11371 0.5022199,5.39976 c 10.2140746,-0.25116 21.1817936,-0.37648 32.9028626,-0.37648 h 30.265462 c 18.335101,0 39.265556,0.12532 62.791416,0.37648 l 0.75382,-0.87913 3.39073,-45.58642 -5.65121,0.87914 -16.82835,33.90735 H 40.702475 l 96.573405,-159.11372 -0.50222,-5.40017 c -12.05595,0.33489 -24.02816,0.50225 -35.91668,0.50225 H 71.219545 c -18.753711,0 -38.55442,-0.16736 -59.401179,-0.50225 z m 149.443734,0 0.25161,5.40017 15.5723,4.89793 c 1.9256,0.66977 2.93009,2.09273 3.01382,4.2695 0.0837,2.76282 0.1253,5.86059 0.1253,9.29319 0.0837,3.4326 0.12581,7.28389 0.12581,11.55371 V 265.139 c 0,5.02332 -0.0421,9.62813 -0.12581,13.81423 0,4.10237 -0.0416,7.82794 -0.1253,11.17682 -0.16745,2.00933 -1.29769,3.30697 -3.39073,3.89302 l -15.447,4.6468 0.50272,5.39976 c 10.63269,-0.25116 21.01424,-0.37648 31.1446,-0.37648 h 29.88855 c 18.3351,0 38.34472,0.12532 60.0287,0.37648 l 0.87913,-0.87913 2.76271,-43.70279 -5.65122,1.0049 -15.32118,31.89796 h -60.27982 c -0.16744,-9.04197 -0.25111,-18.20956 -0.25111,-27.50269 v -45.71219 h 11.30244 c 8.7908,0 18.62828,0.0837 29.51213,0.25113 1.9256,0.0837 3.22317,1.214 3.89295,3.39077 l 4.52097,17.20501 6.78146,-0.50266 c -0.25116,-11.63735 -0.37641,-20.17673 -0.37641,-25.61865 0,-5.60937 0.12525,-14.27488 0.37641,-25.99595 l -6.78146,0.25112 -4.39517,16.95388 c -0.66977,2.09305 -2.09309,3.18129 -4.26986,3.26501 -10.71641,0.16745 -20.42814,0.25113 -29.13522,0.25113 h -11.42824 v -69.07032 h 58.01933 l 7.7864,29.00943 5.02319,-0.87914 7.28368,-38.80487 -0.75333,-1.0049 c -20.84676,0.33489 -40.64697,0.50225 -59.40068,0.50225 H 192.4067 c -9.96291,0 -20.34447,-0.16736 -31.1446,-0.50225 z m 393.45201,6.02819 c 22.18631,0 38.59581,7.11642 49.22849,21.34914 10.63268,14.23273 15.94871,34.57703 15.94871,61.03315 0,28.21429 -5.02344,48.93576 -15.07007,62.16382 -9.96291,13.14434 -25.45109,19.71624 -46.46529,19.71624 -21.34909,0 -37.54967,-7.24174 -48.60097,-21.72563 -11.05129,-14.56762 -16.57673,-35.49808 -16.57673,-62.79142 0,-26.79102 4.85562,-46.75896 14.56736,-59.9033 9.79546,-13.22807 25.45197,-19.842 46.9685,-19.842 z m -184.23067,3.76725 c 13.73039,0 23.81887,2.93041 30.26546,8.79095 6.44659,5.86053 9.66997,15.15384 9.66997,27.87958 0,13.14434 -3.39071,22.814 -10.17219,29.00942 -6.69775,6.1117 -17.28873,9.16784 -31.77262,9.16784 -4.35354,0 -9.08341,-0.12573 -14.19045,-0.37689 v -73.466 c 3.09771,-0.33488 5.98594,-0.58633 8.66504,-0.75378 2.6791,-0.16744 5.19057,-0.25112 7.53479,-0.25112 z" />
    <text
       xml:space="preserve"
       style="font-style:normal;font-variant:normal;font-weight:normal;font-stretch:normal;font-size:100.788px;font-family:'Permanent Marker';-inkscape-font-specification:'Permanent Marker';fill:#000000;fill-opacity:1;stroke:#000000;stroke-width:6.34887;stroke-linecap:square;stroke-linejoin:round;stroke-opacity:1;paint-order:stroke markers fill"
       x="512.68091"
       y="366.69162"
       id="text348"
       transform="scale(0.94271445,1.0607666)"><tspan
         sodipodi:role="line"
         id="tspan346"
         style="font-style:normal;font-variant:normal;font-weight:normal;font-stretch:normal;font-family:'Permanent Marker';-inkscape-font-specification:'Permanent Marker';fill:#000000;fill-opacity:1;stroke:#000000;stroke-width:6.34887;stroke-opacity:1"
         x="512.68091"
         y="366.69162">evil</tspan></text>
  </g>
  <g
     inkscape:label="Capa 1"
     inkscape:groupmode="layer"
     id="layer1"
     style="display:none"
     sodipodi:insensitive="true" />
</svg>
