<?xml version="1.0" encoding="UTF-8" standalone="no"?>
<!-- Created with Inkscape (http://www.inkscape.org/) -->

<svg
   version="1.1"
   id="svg2"
   width="225"
   height="225"
   viewBox="0 0 225 225"
   xmlns="http://www.w3.org/2000/svg"
   xmlns:svg="http://www.w3.org/2000/svg">
  <defs
     id="defs6" />
  <g
     id="g8">
    <g
       id="g393"
       transform="matrix(1.1964092,0,0,1.3619647,-22.120787,-33.207463)">
      <path
         style="opacity:0.99;fill:#0000ff;stroke:#aa5673;stroke-width:0.476695;stroke-opacity:0"
         d="m 71.980932,155.68978 v -29.36563 h -5.968308 -5.968308 l 0.28748,-4.64777 c 0.158114,-2.55628 0.370224,-4.91592 0.471356,-5.24365 0.143918,-0.46638 5.405035,-0.59587 24.210357,-0.59587 h 24.026481 l 0.32528,2.97935 c 0.61929,5.67218 0.8459,6.62024 1.52056,6.36134 0.87907,-0.33733 29.0138,-20.91535 39.44046,-28.847146 4.68026,-3.560377 8.91689,-6.767719 9.41473,-7.127424 1.17543,-0.849289 1.12402,-1.550841 -0.18237,-2.4887 -3.12329,-2.242196 -49.04691,-33.801144 -49.18641,-33.801144 -0.0909,0 -0.44054,2.252383 -0.77699,5.005296 l -0.61173,5.005297 H 84.985273 c -18.782733,0 -24.038207,-0.1295 -24.182121,-0.595869 -0.101132,-0.327728 -0.313242,-2.687367 -0.471356,-5.243644 l -0.28748,-4.647775 h 5.968308 5.968308 V 41.23411 30.03178 l 21.09375,0.0062 c 23.106128,0.0068 46.193348,0.675526 50.607018,1.465908 4.00488,0.717177 10.84877,3.083368 15.24099,5.269386 11.88334,5.914363 20.42724,14.8755 26.96998,28.287032 4.12029,8.445901 4.07025,8.14985 4.07025,24.081663 0,16.130341 -0.0169,16.228761 -4.29101,25.026481 -3.63271,7.47741 -6.92346,12.24009 -11.88066,17.19477 -7.01978,7.01622 -15.29235,11.83009 -25.32712,14.73806 -5.67226,1.64376 -11.84412,2.15086 -26.17765,2.15086 h -12.51716 l -0.25697,10.84481 c -0.28001,11.8173 -0.64427,13.875 -3.15755,17.83719 -0.77639,1.22399 -2.51402,3.09683 -3.86139,4.16186 -3.97965,3.14573 -5.758872,3.49717 -18.952626,3.74356 l -11.559852,0.21588 z"
         id="path372" />
      <path
         style="opacity:0.99;fill:#0000ff;stroke:#aa5673;stroke-width:0.476695;stroke-opacity:0"
         d="m 68.167373,99.629237 v -5.720339 h 20.736229 20.736228 v 5.720339 5.720343 H 88.903602 68.167373 Z"
         id="path374" />
      <path
         style="opacity:0.99;fill:#0000ff;stroke:#aa5673;stroke-width:0.476695;stroke-opacity:0"
         d="m 56.348523,84.02152 c -3.65402,-0.206794 -3.912082,-0.641482 -3.912082,-6.589629 V 73.411017 H 81.038136 109.63983 V 78.893009 84.375 L 84.494174,84.28315 C 70.664063,84.232634 57.99852,84.1149 56.348523,84.02152 Z"
         id="path376" />
      <path
         style="opacity:0.99;fill:#0000ff;stroke:#aa5673;stroke-width:0.476695;stroke-opacity:0"
         d="m 42.931877,62.983421 c -0.937746,-0.636398 -1.358129,-8.805221 -0.505973,-9.832006 0.460925,-0.55538 1.751744,-0.714974 5.782815,-0.714974 h 5.18944 l -0.26445,2.740995 c -0.544189,5.640447 -0.76209,6.729963 -1.46218,7.310986 -0.890275,0.738863 -7.803361,1.130408 -8.739652,0.494999 z"
         id="path378" />
      <path
         style="opacity:0.99;fill:#0000ff;stroke:#aa5673;stroke-width:0.476695;stroke-opacity:0"
         d="m 35.768891,83.452949 c -0.639928,-1.195715 -0.639928,-7.924166 0,-9.119881 0.427963,-0.799657 1.026868,-0.922051 4.511829,-0.922051 4.845329,0 5.005297,0.175203 5.005297,5.481992 0,5.306788 -0.159968,5.481991 -5.005297,5.481991 -3.484961,0 -4.083866,-0.122394 -4.511829,-0.922051 z"
         id="path380" />
      <path
         style="opacity:0.99;fill:#0000ff;stroke:#aa5673;stroke-width:0.476695;stroke-opacity:0"
         d="m 51.602225,104.63889 c -1.334377,-0.57998 -1.558501,-0.92451 -1.61589,-2.48399 -0.128464,-3.490843 0.164998,-5.631371 0.882555,-6.43742 0.700398,-0.786773 1.548698,-0.968592 7.407063,-1.587576 l 2.740996,-0.289608 v 5.005548 c 0,6.221846 -0.20896,6.511286 -4.681825,6.485076 -1.751003,-0.0103 -3.880807,-0.32168 -4.732899,-0.69203 z"
         id="path382" />
      <path
         style="opacity:0.99;fill:#0000ff;stroke:#aa5673;stroke-width:0.476695;stroke-opacity:0"
         d="m 44.083241,125.65999 c -0.777977,-0.56888 -0.908301,-1.28606 -0.908301,-4.99849 0,-2.85798 0.205281,-4.5396 0.602678,-4.937 0.766821,-0.76682 7.91417,-0.82297 8.669038,-0.0681 0.318659,0.31866 0.534579,2.33285 0.534579,4.9868 0,3.70211 -0.141556,4.55572 -0.840203,5.06658 -1.149996,0.8409 -6.888191,0.80544 -8.057791,-0.0498 z"
         id="path384" />
    </g>
  </g>
</svg>
