<?xml version="1.0" encoding="UTF-8" standalone="no"?>
<!-- Created with Inkscape (http://www.inkscape.org/) -->

<svg
   version="1.1"
   id="svg2"
   width="682.66669"
   height="682.66669"
   viewBox="0 0 682.66669 682.66669"
   xmlns="http://www.w3.org/2000/svg"
   xmlns:svg="http://www.w3.org/2000/svg">
  <defs
     id="defs6" />
  <g
     id="g8">
    <path
       style="opacity:0.99;fill:#14bf96;fill-opacity:1;stroke:#aa5673;stroke-width:1.75917;stroke-opacity:0"
       d="M 334.14278,651.01595 C 320.40734,645.84794 110.40081,532.18733 71.475143,508.85389 59.846513,501.88328 55.659065,498.31132 53.400688,493.43617 c -2.512134,-5.42299 -3.044379,-16.9607 -3.662007,-79.38233 -0.75529,-76.33449 1.915581,-228.22985 4.129035,-234.82281 0.705697,-2.10194 2.452449,-3.8217 3.881703,-3.8217 1.429242,0 6.867845,-2.964 12.085782,-6.58665 C 110.49925,140.5909 328.72876,27.636557 342.60897,27.636557 c 17.14579,0 271.38811,133.977423 281.40647,148.292043 5.18403,7.40715 8.86877,52.708 12.11563,148.95202 2.27733,67.50487 1.27017,146.79587 -2.04392,160.9112 -3.45609,14.72019 -7.03912,17.05216 -123.93425,80.66073 -162.48998,88.41904 -163.92732,89.10963 -176.01012,84.5634 z m 51.27026,-135.05761 c 90.33262,-17.24609 156.79561,-77.07138 178.51273,-160.68453 5.85607,-22.54644 9.35904,-59.39996 6.56021,-69.01782 -2.72513,-9.36469 -5.97114,-10.07338 -30.76961,-6.71802 -49.0188,6.63254 -88.36101,25.05814 -123.56093,57.86872 -41.892,39.04845 -63.3021,84.68577 -70.91059,151.15148 -0.62707,5.47796 -1.81284,9.29966 -2.63504,8.49268 -0.8222,-0.80698 -2.42903,-9.87497 -3.57072,-20.15113 -6.06062,-54.55031 -27.32888,-98.55908 -65.49516,-135.52403 -38.00656,-36.81026 -81.14157,-57.03172 -133.60493,-62.63325 -25.08485,-2.67834 -23.92427,-4.33626 -22.75102,32.50074 1.24074,38.95485 7.19357,61.96328 24.18262,93.46869 33.37443,61.89134 97.43956,103.99071 172.98567,113.67471 17.22618,2.20816 53.21338,0.97835 71.05677,-2.42824 z M 356.30915,299.25061 c 35.15225,-6.05803 61.03672,-35.15044 60.96671,-68.52246 -0.0589,-28.11651 -15.90684,-51.59819 -43.31262,-64.17598 -11.29288,-5.18285 -13.45994,-5.58042 -30.41716,-5.58042 -16.7631,0 -19.2662,0.44523 -30.57183,5.43779 -16.37003,7.22902 -30.82274,20.17683 -38.27561,34.29017 -5.5605,10.52976 -5.89157,12.20873 -5.89157,29.87637 0,16.81472 0.50346,19.72134 4.94756,28.56352 6.06427,12.06569 22.65598,27.89152 35.13573,33.51385 8.6966,3.91797 24.88069,8.00146 32.91631,8.30529 2.07065,0.0783 8.59675,-0.69036 14.50248,-1.70813 z"
       id="path784" />
  </g>
</svg>
