<?xml version="1.0" encoding="UTF-8" standalone="no"?>
<!-- Created with Inkscape (http://www.inkscape.org/) -->

<svg
   version="1.1"
   id="svg2"
   width="225"
   height="225"
   viewBox="0 0 225 225"
   xmlns="http://www.w3.org/2000/svg"
   xmlns:svg="http://www.w3.org/2000/svg">
  <defs
     id="defs6" />
  <g
     id="g8">
    <path
       style="fill:#00ff00"
       d="m 108.54661,221.6182 c -8.962242,-4.51782 -89.513882,-84.53353 -93.393912,-92.77254 -5.02506,-10.67042 -5.02567,-21.47065 -0.002,-32.490278 3.2838,-7.202923 84.992242,-88.9545329 92.895762,-92.9448379 7.86861,-3.972682 20.88418,-4.57484 29.5,-1.364802 7.16861,2.670841 64.95098,58.8039019 69.78697,67.7950079 11.07977,20.599567 7.13052,29.483623 -29.18462,65.6523 -31.83727,31.70889 -29.9195,26.32432 -14.72557,41.34536 21.31712,21.07456 -25.73546,59.46976 -54.87678,44.77979 z m 28.23611,-45.85374 c 12.26499,-12.23555 12.26499,-12.23555 -0.47467,-25.00355 -12.73965,-12.76799 -12.73965,-12.76799 12.74454,-38.26689 L 174.53678,86.99512 149.53799,61.99633 124.5392,36.997541 86.633928,74.91266 l -37.90527,37.91512 37.40897,37.52515 c 44.108472,44.24545 35.896282,40.12493 50.645092,25.41153 z"
       id="path293" />
  </g>
</svg>
