<?xml version="1.0" encoding="UTF-8" standalone="no"?>
<!-- Created with Inkscape (http://www.inkscape.org/) -->

<svg
   version="1.1"
   id="svg2"
   width="1365.3333"
   height="1365.3333"
   viewBox="0 0 1365.3333 1365.3333"
   sodipodi:docname="unnamed (1).png"
   inkscape:export-filename="unnamed (1).svg"
   inkscape:export-xdpi="96"
   inkscape:export-ydpi="96"
   inkscape:version="0.0"
   xmlns:inkscape="http://www.inkscape.org/namespaces/inkscape"
   xmlns:sodipodi="http://sodipodi.sourceforge.net/DTD/sodipodi-0.dtd"
   xmlns="http://www.w3.org/2000/svg"
   xmlns:svg="http://www.w3.org/2000/svg">
  <defs
     id="defs6" />
  <sodipodi:namedview
     id="namedview4"
     pagecolor="#ffffff"
     bordercolor="#999999"
     borderopacity="1"
     inkscape:showpageshadow="0"
     inkscape:pageopacity="0"
     inkscape:pagecheckerboard="0"
     inkscape:deskcolor="#d1d1d1"
     showgrid="false"
     inkscape:zoom="0.34570315"
     inkscape:cx="882.25983"
     inkscape:cy="916.9717"
     inkscape:window-width="1280"
     inkscape:window-height="737"
     inkscape:window-x="-8"
     inkscape:window-y="-8"
     inkscape:window-maximized="1"
     inkscape:current-layer="g8" />
  <g
     inkscape:groupmode="layer"
     inkscape:label="Image"
     id="g8">
    <g
       id="g1245"
       transform="matrix(1.4107345,0,0,1.2439951,-283.28889,-195.35019)">
      <path
         style="fill:#000000;stroke-width:2.66667"
         d="m 619.99998,1245.4813 c -102.16855,-18.4284 -174.06028,-78.3956 -199.57463,-166.4717 -11.49811,-39.6917 -12.40989,-59.2167 -12.41784,-265.91123 -0.008,-195.37618 -0.008,-195.37618 72.65914,-194.66666 72.66667,0.70952 72.66667,0.70952 74.02467,198.04284 1.52371,221.41255 0.44827,209.46035 21.71181,241.30275 52.55395,78.7001 173.31309,73.2958 217.56904,-9.7368 16.96842,-31.836 16.69448,-27.9174 16.69448,-238.79288 0,-191.43973 0,-191.43973 73.33333,-191.43973 73.33333,0 73.33333,0 73.33333,192.10509 0,235.67702 -1.72048,254.31532 -28.36941,307.33042 -49.86048,99.1918 -177.13181,152.0168 -308.96392,128.2379 z M 408.6277,402.92368 c 0.70562,-82.15138 0.70562,-82.15138 136.47893,-163.00698 81.32503,-48.43061 137.46829,-80.29579 139.99999,-79.45966 2.32467,0.76776 64.2267,37.21326 137.56003,80.98999 133.33333,79.59407 133.33333,79.59407 134.03895,161.61105 0.61246,71.18424 0.18907,81.81872 -3.20648,80.51579 -2.15165,-0.82568 -63.39709,-36.9608 -136.10093,-80.30027 -157.12893,-93.66607 -111.92237,-93.65405 -269.0733,-0.0717 -72.71287,43.30008 -134.0497,79.4352 -136.30405,80.30027 -3.64189,1.39752 -4.02013,-7.58488 -3.39314,-80.57854 z"
         id="path293" />
      <g
         id="g1240">
        <path
           id="path293-6"
           style="fill:#d500ff;fill-opacity:1;stroke-width:2.66667"
           d="m 685.10326,160.55591 c -2.53169,-0.83612 -58.67529,31.03053 -140.00001,79.46094 -135.77275,80.85528 -135.77289,80.8548 -136.47851,163.00586 -0.62699,72.99338 -0.24931,81.9776 3.39258,80.58008 2.25431,-0.86507 63.59213,-37.00086 136.30468,-80.30078 157.15032,-93.58199 111.94396,-93.59537 269.07227,0.0703 72.70351,43.33931 133.94996,79.4751 136.10156,80.30078 3.3956,1.30293 3.81953,-9.33166 3.20703,-80.51562 C 955.99726,321.14085 955.99657,321.1399 822.6638,241.54615 749.33072,197.76959 687.42792,161.32367 685.10326,160.55591 Z m 230.24218,471.69532 c 0.0382,-0.66607 -0.54174,1.24668 -0.58984,1.91211 -0.0243,0.33567 0.0206,1.14759 0.004,1.58203 0.20087,-1.1587 0.5129,-2.22059 0.58594,-3.49414 z m -503.98242,37.86133 c -0.15716,1.37018 -0.29495,2.84141 -0.4375,4.28515 0.95034,-1.29982 2.16996,-2.47527 3.54297,-3.56836 -1.0355,-0.23889 -2.07047,-0.47936 -3.10547,-0.71679 z m 122.43945,27.11132 c -0.86773,0.55567 -1.74238,1.04891 -2.61914,1.53516 0.97089,1.24932 1.91542,2.57061 2.83399,3.96094 0.0547,-1.84084 -0.0171,-3.67676 -0.21485,-5.4961 z" />
      </g>
    </g>
  </g>
</svg>
