<?xml version="1.0" encoding="UTF-8" standalone="no"?>
<!-- Generated by IcoMoon.io -->

<svg
   version="1.1"
   width="48"
   height="48"
   viewBox="0 0 48 48"
   id="svg6"
   sodipodi:docname="gamepad1.svg"
   inkscape:version="1.2.2 (732a01da63, 2022-12-09)"
   xmlns:inkscape="http://www.inkscape.org/namespaces/inkscape"
   xmlns:sodipodi="http://sodipodi.sourceforge.net/DTD/sodipodi-0.dtd"
   xmlns="http://www.w3.org/2000/svg"
   xmlns:svg="http://www.w3.org/2000/svg">
  <defs
     id="defs10" />
  <sodipodi:namedview
     id="namedview8"
     pagecolor="#ffffff"
     bordercolor="#999999"
     borderopacity="1"
     inkscape:showpageshadow="0"
     inkscape:pageopacity="0"
     inkscape:pagecheckerboard="0"
     inkscape:deskcolor="#d1d1d1"
     showgrid="false"
     inkscape:zoom="4.9166667"
     inkscape:cx="11.59322"
     inkscape:cy="24"
     inkscape:window-width="1280"
     inkscape:window-height="737"
     inkscape:window-x="-8"
     inkscape:window-y="-8"
     inkscape:window-maximized="1"
     inkscape:current-layer="svg6" />
  <title
     id="title2">gamepad1</title>
  <path
     d="M20 10.528c-2.87-2.81-9.56-3.94-13.33 0.1-3.69 3.94-6.67 13.439-6.67 22.4 0 10.811 9.060 12.311 14 7 2.86-3.080 3.13-3.561 5-6h10c1.88 2.439 2.14 2.92 5 6 4.939 5.311 14 3.811 14-7 0-8.961-2.98-18.46-6.67-22.4-3.77-4.040-10.45-2.91-13.33-0.1-1.11 1.080-4 1.5-4 1.5s-2.89-0.42-4-1.5zM16 17.128v2.899h2.9c1.16 0 2.1 0.9 2.1 2.001 0 1.1-0.94 2-2.1 2h-2.9v2.899c0 1.161-0.9 2.101-2 2.101s-2-0.939-2-2.101v-2.899h-2.9c-1.16 0-2.1-0.9-2.1-2 0-1.101 0.94-2.001 2.1-2.001l2.9-0v-2.899c0-1.16 0.9-2.1 2-2.1s2 0.94 2 2.1zM34 18.528c0-1.38 1.12-2.5 2.5-2.5s2.5 1.12 2.5 2.5-1.12 2.5-2.5 2.5-2.5-1.12-2.5-2.5zM29 24.528c0-1.381 1.12-2.5 2.5-2.5s2.5 1.119 2.5 2.5c0 1.379-1.12 2.5-2.5 2.5s-2.5-1.121-2.5-2.5z"
     id="path4"
     style="fill:#038af5;fill-opacity:1" />
</svg>
