<?xml version="1.0" encoding="UTF-8" standalone="no"?>
<!-- Generated by IcoMoon.io -->

<svg
   version="1.1"
   width="48"
   height="48"
   viewBox="0 0 48 48"
   id="svg6"
   sodipodi:docname="gamepad.svg"
   inkscape:version="1.2.2 (732a01da63, 2022-12-09)"
   xmlns:inkscape="http://www.inkscape.org/namespaces/inkscape"
   xmlns:sodipodi="http://sodipodi.sourceforge.net/DTD/sodipodi-0.dtd"
   xmlns="http://www.w3.org/2000/svg"
   xmlns:svg="http://www.w3.org/2000/svg">
  <defs
     id="defs10" />
  <sodipodi:namedview
     id="namedview8"
     pagecolor="#ffffff"
     bordercolor="#999999"
     borderopacity="1"
     inkscape:showpageshadow="0"
     inkscape:pageopacity="0"
     inkscape:pagecheckerboard="0"
     inkscape:deskcolor="#d1d1d1"
     showgrid="false"
     inkscape:zoom="4.9166667"
     inkscape:cx="11.59322"
     inkscape:cy="24"
     inkscape:window-width="1280"
     inkscape:window-height="737"
     inkscape:window-x="-8"
     inkscape:window-y="-8"
     inkscape:window-maximized="1"
     inkscape:current-layer="svg6" />
  <title
     id="title2">gamepad</title>
  <path
     d="M9 48h24c1.38 0 2.641-0.561 3.54-1.47l5.080-5.060c0.851-0.861 1.38-2.050 1.38-3.39v-34.080c0-2.21-1.79-4-4-4h-30c-2.21 0-4 1.79-4 4v40c0 2.21 1.79 4 4 4zM12.2 5h23.6c1.22 0 2.2 0.98 2.2 2.2v10.6c0 1.22-0.98 2.2-2.2 2.2l-23.6-0c-1.22 0-2.2-0.98-2.2-2.2l0-10.6c0-1.22 0.98-2.2 2.2-2.2zM18 28.1v2.9h2.9c1.16 0 2.1 0.9 2.1 2s-0.94 2-2.1 2h-2.9v2.9c0 1.16-0.9 2.1-2 2.1s-2-0.939-2-2.1l-0-2.9h-2.9c-1.16 0-2.1-0.9-2.1-2s0.94-2 2.1-2h2.9v-2.9c0-1.16 0.9-2.1 2-2.1s2 0.939 2 2.1zM33 29.5c0-1.38 1.12-2.5 2.5-2.5s2.5 1.12 2.5 2.5-1.12 2.5-2.5 2.5-2.5-1.12-2.5-2.5zM28 35.5c0-1.38 1.12-2.5 2.5-2.5s2.5 1.12 2.5 2.5-1.12 2.5-2.5 2.5-2.5-1.12-2.5-2.5z"
     id="path4"
     style="fill:#038af5;fill-opacity:1" />
</svg>
