<?xml version="1.0" encoding="UTF-8" standalone="no"?>
<!-- Generated by IcoMoon.io -->

<svg
   version="1.1"
   width="32"
   height="32"
   viewBox="0 0 32 32"
   id="svg136"
   sodipodi:docname="home.svg"
   inkscape:version="1.2.2 (732a01da63, 2022-12-09)"
   xmlns:inkscape="http://www.inkscape.org/namespaces/inkscape"
   xmlns:sodipodi="http://sodipodi.sourceforge.net/DTD/sodipodi-0.dtd"
   xmlns="http://www.w3.org/2000/svg"
   xmlns:svg="http://www.w3.org/2000/svg">
  <defs
     id="defs140" />
  <sodipodi:namedview
     id="namedview138"
     pagecolor="#ffffff"
     bordercolor="#999999"
     borderopacity="1"
     inkscape:showpageshadow="0"
     inkscape:pageopacity="0"
     inkscape:pagecheckerboard="0"
     inkscape:deskcolor="#d1d1d1"
     showgrid="false"
     showguides="true"
     inkscape:zoom="12.300553"
     inkscape:cx="8.211013"
     inkscape:cy="16.178135"
     inkscape:window-width="1280"
     inkscape:window-height="737"
     inkscape:window-x="-8"
     inkscape:window-y="-8"
     inkscape:window-maximized="1"
     inkscape:current-layer="svg136">
    <sodipodi:guide
       position="31.999578,34.396972"
       orientation="1,0"
       id="guide490"
       inkscape:locked="false" />
    <sodipodi:guide
       position="0,30.915254"
       orientation="1,0"
       id="guide492"
       inkscape:locked="false" />
    <sodipodi:guide
       position="10.779661,32"
       orientation="0,-1"
       id="guide494"
       inkscape:locked="false" />
    <sodipodi:guide
       position="16,36.75"
       orientation="1,0"
       id="guide3922"
       inkscape:locked="false" />
    <sodipodi:guide
       position="-18.285156,15.996094"
       orientation="0,-1"
       id="guide3924"
       inkscape:locked="false" />
  </sodipodi:namedview>
  <title
     id="title132">homeassistant</title>
  <path
     id="path134"
     style="fill:#038af5;fill-opacity:1"
     d="M 15.990234 1.8574219 L 15.990234 1.859375 C 15.730237 1.861375 15.495172 1.9686256 15.326172 2.140625 L 0.21679688 17.462891 C 0.082797267 17.598888 0.001953125 17.785237 0.001953125 17.990234 C 0.001953125 18.407234 0.33886061 18.746094 0.75585938 18.746094 L 3.5605469 18.746094 L 3.5605469 29.511719 C 3.5605469 29.858716 3.8424543 30.140625 4.1894531 30.140625 L 14.785156 30.140625 L 17.207031 30.140625 L 27.802734 30.140625 L 27.804688 30.140625 C 28.150685 30.140625 28.431641 29.859672 28.431641 29.513672 L 28.431641 29.511719 L 28.431641 18.746094 L 31.246094 18.746094 C 31.452094 18.746094 31.638391 18.662297 31.775391 18.529297 C 32.073388 18.238297 32.077156 17.760888 31.785156 17.462891 L 28.431641 14.03125 L 28.431641 8.6269531 C 28.431641 8.2799543 28.149734 7.9960937 27.802734 7.9960938 L 25.183594 7.9960938 C 24.836594 7.9960938 24.554687 8.2799543 24.554688 8.6269531 L 24.554688 10.097656 L 16.667969 2.1367188 C 16.496969 1.9647191 16.259047 1.8574219 15.998047 1.8574219 L 15.990234 1.8574219 z M 17.189453 13.335938 L 18.533203 13.703125 L 14.820312 27.3125 L 13.478516 26.945312 L 17.189453 13.335938 z M 10.4375 14.138672 L 12.292969 15.994141 L 7.9628906 20.324219 L 12.292969 24.654297 L 10.4375 26.509766 L 4.2519531 20.324219 L 10.4375 14.138672 z M 21.572266 14.138672 L 27.757812 20.324219 L 21.572266 26.509766 L 19.714844 24.654297 L 24.044922 20.324219 L 19.714844 15.994141 L 21.572266 14.138672 z " />
</svg>
