<?xml version="1.0" encoding="UTF-8" standalone="no"?>
<!-- Generated by IcoMoon.io -->

<svg
   version="1.1"
   width="48"
   height="48"
   viewBox="0 0 48 48"
   id="svg5074"
   sodipodi:docname="logo2.svg"
   inkscape:version="1.2.2 (732a01da63, 2022-12-09)"
   xmlns:inkscape="http://www.inkscape.org/namespaces/inkscape"
   xmlns:sodipodi="http://sodipodi.sourceforge.net/DTD/sodipodi-0.dtd"
   xmlns="http://www.w3.org/2000/svg"
   xmlns:svg="http://www.w3.org/2000/svg">
  <defs
     id="defs5078" />
  <sodipodi:namedview
     id="namedview5076"
     pagecolor="#ffffff"
     bordercolor="#999999"
     borderopacity="1"
     inkscape:showpageshadow="0"
     inkscape:pageopacity="0"
     inkscape:pagecheckerboard="0"
     inkscape:deskcolor="#d1d1d1"
     showgrid="false"
     inkscape:zoom="4.9166667"
     inkscape:cx="41.491525"
     inkscape:cy="47.38983"
     inkscape:window-width="1280"
     inkscape:window-height="737"
     inkscape:window-x="-8"
     inkscape:window-y="-8"
     inkscape:window-maximized="1"
     inkscape:current-layer="svg5074" />
  <title
     id="title5070">window</title>
  <path
     id="path1030"
     style="opacity:0.99;fill:#038af5;fill-opacity:1;stroke:#038af5;stroke-width:0.263363;stroke-linejoin:round;stroke-dasharray:none;stroke-dashoffset:0;stroke-opacity:1;paint-order:markers fill stroke"
     d="M 4.3378172,0.31469511 V 12.986216 L 9.0233361,13.96059 8.5825997,30.465481 21.134373,16.479173 l 3.878386,0.80649 1.586154,16.926391 9.536586,-13.199376 a 3.8034161,3.0318094 0 0 1 -0.24317,-1.062471 3.8034161,3.0318094 0 0 1 3.80342,-3.031867 3.8034161,3.0318094 0 0 1 3.803422,3.031867 3.8034161,3.0318094 0 0 1 -3.477163,3.019524 L 27.278132,39.188277 22.924181,38.282902 21.287273,21.4228 8.6111803,35.306418 4.3378172,34.417765 v 13.084488 l 6.2927548,-0.0059 c 9.039458,-0.0086 13.357485,-0.414403 17.871379,-1.679136 8.743177,-2.449773 14.164555,-7.425383 16.191206,-14.859943 0.803185,-2.946482 0.819517,-11.23234 0.02765,-14.001958 C 42.594896,9.5198717 37.603257,4.8417193 28.976421,2.1998964 24.396652,0.79742091 19.829277,0.32958001 10.630572,0.32074191 Z" />
</svg>
