<?xml version="1.0" encoding="UTF-8" standalone="no"?>
<!-- Generated by IcoMoon.io -->

<svg
   version="1.1"
   width="48"
   height="48"
   viewBox="0 0 48 48"
   id="svg5074"
   sodipodi:docname="window.svg"
   inkscape:version="1.2.2 (732a01da63, 2022-12-09)"
   xmlns:inkscape="http://www.inkscape.org/namespaces/inkscape"
   xmlns:sodipodi="http://sodipodi.sourceforge.net/DTD/sodipodi-0.dtd"
   xmlns="http://www.w3.org/2000/svg"
   xmlns:svg="http://www.w3.org/2000/svg">
  <defs
     id="defs5078" />
  <sodipodi:namedview
     id="namedview5076"
     pagecolor="#ffffff"
     bordercolor="#999999"
     borderopacity="1"
     inkscape:showpageshadow="0"
     inkscape:pageopacity="0"
     inkscape:pagecheckerboard="0"
     inkscape:deskcolor="#d1d1d1"
     showgrid="false"
     inkscape:zoom="4.9166667"
     inkscape:cx="-1.0169491"
     inkscape:cy="24"
     inkscape:window-width="1280"
     inkscape:window-height="737"
     inkscape:window-x="-8"
     inkscape:window-y="-8"
     inkscape:window-maximized="1"
     inkscape:current-layer="svg5074" />
  <title
     id="title5070">window</title>
  <path
     d="M26.9 33.37l2.91 2.91c0.959 0.96 2.509 0.96 3.469 0 0.961-0.96 0.961-2.511 0-3.47l-2.899-2.91 2.899-2.9c0 0-10.979-4.69-11.429-4.86-0.24-0.090-0.49-0.14-0.75-0.14-1.16 0-2.1 0.93-2.1 2.080 0 0.27 0.050 0.52 0.14 0.75 0.17 0.43 4.86 11.45 4.86 11.45l2.9-2.91zM0 43c0 2.21 1.79 4 4 4h40c2.21 0 4-1.79 4-4l-0-37c0-2.21-1.79-4-4-4h-40c-2.21 0-4 1.79-4 4v37zM7.2 16h33.6c1.22 0 2.2 0.98 2.2 2.2v21.6c0 1.22-0.98 2.2-2.2 2.2l-33.6-0c-1.22 0-2.2-0.98-2.2-2.2v-21.6c0-1.22 0.98-2.2 2.2-2.2zM5 9.5c0-1.38 1.12-2.5 2.5-2.5s2.5 1.12 2.5 2.5-1.12 2.5-2.5 2.5-2.5-1.12-2.5-2.5zM14 9.5c0-1.38 1.12-2.5 2.5-2.5s2.5 1.12 2.5 2.5-1.12 2.5-2.5 2.5-2.5-1.12-2.5-2.5zM23 9.5c0-1.38 1.12-2.5 2.5-2.5s2.5 1.12 2.5 2.5-1.12 2.5-2.5 2.5-2.5-1.12-2.5-2.5z"
     id="path5072"
     style="fill:#038af5;fill-opacity:1" />
</svg>
