<?xml version="1.0" encoding="UTF-8" standalone="no"?>
<!-- Generated by IcoMoon.io -->

<svg
   version="1.1"
   width="48"
   height="48"
   viewBox="0 0 48 48"
   id="svg5074"
   sodipodi:docname="icono.svg"
   inkscape:version="1.2.2 (732a01da63, 2022-12-09)"
   xmlns:inkscape="http://www.inkscape.org/namespaces/inkscape"
   xmlns:sodipodi="http://sodipodi.sourceforge.net/DTD/sodipodi-0.dtd"
   xmlns="http://www.w3.org/2000/svg"
   xmlns:svg="http://www.w3.org/2000/svg">
  <defs
     id="defs5078" />
  <sodipodi:namedview
     id="namedview5076"
     pagecolor="#ffffff"
     bordercolor="#999999"
     borderopacity="1"
     inkscape:showpageshadow="0"
     inkscape:pageopacity="0"
     inkscape:pagecheckerboard="0"
     inkscape:deskcolor="#d1d1d1"
     showgrid="false"
     inkscape:zoom="11.313709"
     inkscape:cx="26.251339"
     inkscape:cy="25.986174"
     inkscape:window-width="1280"
     inkscape:window-height="737"
     inkscape:window-x="-8"
     inkscape:window-y="-8"
     inkscape:window-maximized="1"
     inkscape:current-layer="svg5074" />
  <title
     id="title5070">window</title>
  <path
     id="path1030"
     style="opacity:0.99;fill:#000000;fill-opacity:1;stroke:#000000;stroke-width:0.263363;stroke-linejoin:round;stroke-dasharray:none;stroke-dashoffset:0;stroke-opacity:1;paint-order:markers fill stroke"
     d="M 4.3378172,0.31469511 V 12.986216 L 9.0233361,13.96059 8.5825997,30.465481 21.134373,16.479173 l 3.878386,0.80649 1.586154,16.926391 9.536586,-13.199376 a 3.8034161,3.0318094 0 0 1 -0.24317,-1.062471 3.8034161,3.0318094 0 0 1 3.80342,-3.031867 3.8034161,3.0318094 0 0 1 3.803422,3.031867 3.8034161,3.0318094 0 0 1 -3.477163,3.019524 L 27.278132,39.188277 22.924181,38.282902 21.287273,21.4228 8.6111803,35.306418 4.3378172,34.417765 v 13.084488 l 6.2927548,-0.0059 c 9.039458,-0.0086 13.357485,-0.414403 17.871379,-1.679136 8.743177,-2.449773 14.164555,-7.425383 16.191206,-14.859943 0.803185,-2.946482 0.819517,-11.23234 0.02765,-14.001958 C 42.594896,9.5198717 37.603257,4.8417193 28.976421,2.1998964 24.396652,0.79742091 19.829277,0.32958001 10.630572,0.32074191 Z" />
  <path
     style="opacity:0.99;fill:#ffffff;fill-opacity:1;stroke:#000000;stroke-width:0;stroke-dasharray:none;stroke-opacity:1"
     d="m 25.085206,38.551356 c -1.054588,-0.226481 -1.936899,-0.432309 -1.96069,-0.457394 -0.02379,-0.02509 -0.405159,-3.7838 -0.847484,-8.352699 -0.442323,-4.568899 -0.821613,-8.356807 -0.842865,-8.417574 -0.02125,-0.06077 -0.0766,-0.110486 -0.122994,-0.110486 -0.0464,0 -2.935262,3.122319 -6.419703,6.938486 -3.48444,3.816167 -6.3811169,6.936531 -6.4370588,6.934142 -0.055942,-0.0024 -0.9966444,-0.193768 -2.0904502,-0.42529 L 4.3752232,34.239593 4.3527658,23.694325 4.3303084,13.149058 l 0.1992341,0.05213 c 0.1095788,0.02867 1.1140535,0.239033 2.2321661,0.467476 1.1181126,0.228442 2.0447011,0.423625 2.0590856,0.433738 0.014384,0.01011 -0.074065,3.707843 -0.1965545,8.217178 -0.1224895,4.509334 -0.2015171,8.233078 -0.1756168,8.274985 0.0259,0.04191 0.082007,0.0762 0.1246828,0.0762 0.060698,0 11.8916463,-13.112431 12.4714373,-13.822296 0.138906,-0.170069 0.166345,-0.167266 1.939528,0.198117 0.989246,0.203844 1.814705,0.386703 1.834354,0.406352 0.01965,0.01965 0.39077,3.824657 0.824714,8.455574 0.433942,4.630915 0.806211,8.437072 0.827264,8.458125 0.02105,0.02105 0.09506,0.01649 0.164462,-0.01015 0.0694,-0.02663 2.244928,-2.984821 4.834502,-6.573754 2.589575,-3.588933 4.74454,-6.572235 4.78881,-6.62956 0.05011,-0.06489 0.02832,-0.257895 -0.05772,-0.511322 -0.174314,-0.513431 -0.174865,-0.893332 -0.002,-1.384173 0.456984,-1.297623 1.818837,-2.129225 3.487716,-2.129738 2.972517,-9.14e-4 4.642388,2.578135 2.902142,4.482242 -0.514388,0.562822 -1.165138,0.909039 -2.071804,1.102258 l -0.638231,0.136013 -6.336642,8.065405 c -3.485154,4.435974 -6.382216,8.061779 -6.437917,8.057345 -0.0557,-0.0044 -0.964121,-0.193363 -2.01871,-0.419844 z"
     id="path1643" />
</svg>
